<svg width="38" height="38" viewBox="0 0 38 38" fill="none" xmlns="http://www.w3.org/2000/svg">
<path d="M7.12503 20.1636C7.12252 19.5761 7.28427 18.9995 7.59202 18.499C7.89976 17.9985 8.34126 17.594 8.8667 17.331L13.4584 15.0415L14.3197 12.456C14.4011 12.2136 14.5112 11.9819 14.6474 11.7656C14.511 11.9816 14.4015 12.2134 14.3213 12.456L13.4584 15.0415L8.87461 17.3326C8.34759 17.5939 7.90432 17.9976 7.59508 18.498C7.28584 18.9984 7.123 19.5754 7.12503 20.1636ZM19.7917 19.7915V22.9582V19.7915ZM32.4584 20.1636C32.4604 19.5754 32.2976 18.9984 31.9883 18.498C31.6791 17.9976 31.2358 17.5939 30.7088 17.3326L26.125 15.0415L25.2637 12.456C25.1998 12.2633 25.1176 12.0772 25.0183 11.9002C25.1181 12.0772 25.2008 12.2633 25.2653 12.456L26.125 15.0415L30.7167 17.331C31.2421 17.594 31.6836 17.9985 31.9914 18.499C32.2991 18.9995 32.4609 19.5761 32.4584 20.1636Z" fill="white"/>
<path d="M21.0865 9.5H16.5134C15.7438 9.49987 14.9937 9.74187 14.3694 10.1917C13.745 10.6416 13.278 11.2765 13.0345 12.0065L12.3334 14.1141L8.36021 16.1C7.74954 16.4025 7.23591 16.8701 6.87763 17.4498C6.51934 18.0295 6.33075 18.698 6.33328 19.3795V27.8333C6.33328 28.8058 6.71959 29.7384 7.40722 30.4261C8.09485 31.1137 9.02748 31.5 9.99994 31.5H27.5999C28.5724 31.5 29.505 31.1137 30.1927 30.4261C30.8803 29.7384 31.2666 28.8058 31.2666 27.8333V19.3795C31.2691 18.698 31.0806 18.0295 30.7223 17.4498C30.364 16.8701 29.8503 16.4025 29.2397 16.1L25.2665 14.1141L24.5654 12.0065C24.3219 11.2765 23.8549 10.6416 23.2305 10.1917C22.6061 9.74187 21.856 9.49987 21.0865 9.5ZM9.99994 30.0333C9.41647 30.0333 8.85689 29.8015 8.44431 29.389C8.03173 28.9764 7.79994 28.4168 7.79994 27.8333V19.3795C7.7996 18.9719 7.91329 18.5724 8.12816 18.2262C8.34303 17.8799 8.6505 17.6006 9.01581 17.42L13.2691 15.2963C13.3553 15.2533 13.4322 15.1937 13.4954 15.121C13.5585 15.0482 13.6068 14.9638 13.6373 14.8724L14.4351 12.4788C14.5793 12.0407 14.8576 11.659 15.2305 11.3877C15.6034 11.1163 16.0522 10.9691 16.5134 10.9667H21.0865C21.548 10.967 21.9978 11.1125 22.3721 11.3826C22.7464 11.6526 23.0262 12.0336 23.1721 12.4715L23.9699 14.8651C24.0005 14.9564 24.0487 15.0409 24.1118 15.1136C24.175 15.1864 24.2519 15.2459 24.3381 15.2889L28.5841 17.42C28.9494 17.6006 29.2569 17.8799 29.4717 18.2262C29.6866 18.5724 29.8003 18.9719 29.7999 19.3795V27.8333C29.7999 28.4168 29.5682 28.9764 29.1556 29.389C28.743 29.8015 28.1834 30.0333 27.5999 30.0333H9.99994ZM18.7999 18.3C18.6055 18.3 18.4189 18.3773 18.2814 18.5148C18.1439 18.6523 18.0666 18.8388 18.0666 19.0333V21.2333H15.8666C15.6721 21.2333 15.4856 21.3106 15.3481 21.4481C15.2105 21.5856 15.1333 21.7722 15.1333 21.9667C15.1333 22.1612 15.2105 22.3477 15.3481 22.4852C15.4856 22.6227 15.6721 22.7 15.8666 22.7H18.0666V24.9C18.0666 25.0945 18.1439 25.281 18.2814 25.4185C18.4189 25.5561 18.6055 25.6333 18.7999 25.6333C18.9944 25.6333 19.181 25.5561 19.3185 25.4185C19.456 25.281 19.5333 25.0945 19.5333 24.9V22.7H21.7333C21.9278 22.7 22.1143 22.6227 22.2518 22.4852C22.3894 22.3477 22.4666 22.1612 22.4666 21.9667C22.4666 21.7722 22.3894 21.5856 22.2518 21.4481C22.1143 21.3106 21.9278 21.2333 21.7333 21.2333H19.5333V19.0333C19.5333 18.8388 19.456 18.6523 19.3185 18.5148C19.181 18.3773 18.9944 18.3 18.7999 18.3Z" fill="#999999"/>
</svg>
