<svg width="30" height="34" viewBox="0 0 30 34" fill="none" xmlns="http://www.w3.org/2000/svg">
<path d="M25.1503 6.9835H25.15L4.85 6.9835L4.8497 6.9835C4.19621 6.98546 3.57294 7.28063 3.11514 7.79947C2.65769 8.31791 2.4017 9.01812 2.4 9.7466V9.74683L2.4 24.2535L2.4 24.2537C2.4017 24.9822 2.65769 25.6824 3.11514 26.2009C3.57294 26.7197 4.19621 27.0149 4.8497 27.0168H4.85H25.15H25.1503C25.8038 27.0149 26.4271 26.7197 26.8849 26.2009C27.3423 25.6824 27.5983 24.9822 27.6 24.2537V24.2535V9.74683V9.7466C27.5983 9.01812 27.3423 8.31791 26.8849 7.79947C26.4271 7.28063 25.8038 6.98546 25.1503 6.9835ZM26.15 24.2535C26.15 24.5614 26.042 24.8545 25.8528 25.0689C25.6641 25.2828 25.4109 25.4002 25.15 25.4002H4.85C4.58911 25.4002 4.33595 25.2828 4.14717 25.0689C3.95803 24.8545 3.85 24.5614 3.85 24.2535V9.74683C3.85 9.43895 3.95803 9.14582 4.14717 8.93147C4.33595 8.71751 4.58911 8.60016 4.85 8.60016H25.15C25.4109 8.60016 25.6641 8.71751 25.8528 8.93147C26.042 9.14582 26.15 9.43895 26.15 9.74683V24.2535Z" fill="#101010" stroke="#101010" stroke-width="0.2"/>
<path d="M16.6136 18.9363L16.6135 18.9367H16.6218H16.6885C16.7878 18.9482 16.8884 18.939 16.9839 18.9096C17.081 18.8797 17.1706 18.8297 17.247 18.7629L17.2472 18.763L17.2509 18.7593L21.7476 14.2302C21.8821 14.0949 21.9575 13.912 21.9575 13.7212C21.9575 13.5305 21.8821 13.3475 21.7476 13.2122L21.7474 13.212L19.6705 11.1351L19.6704 11.135C19.5351 11.0005 19.3521 10.925 19.1613 10.925C18.9706 10.925 18.7876 11.0005 18.6524 11.1349C18.6523 11.1349 18.6523 11.1349 18.6523 11.135L14.1243 15.6307C14.0437 15.705 13.9811 15.7967 13.9412 15.8989C13.9012 16.0015 13.8851 16.1119 13.8943 16.2217L13.8943 16.2217L13.8945 16.224L14.1081 18.0938L14.1081 18.0938C14.1266 18.2559 14.1995 18.407 14.3149 18.5224C14.4302 18.6378 14.5813 18.7107 14.7434 18.7292L14.7437 18.7292L16.6136 18.9363ZM20.1523 13.7177L16.4131 17.4568L15.4676 17.3511L15.3736 16.4051L19.1125 12.6662L20.1523 13.7177Z" fill="#101010" stroke="#101010" stroke-width="0.15"/>
<path d="M15.4701 23.9055H19.9992C20.5339 23.9055 21.0467 23.6931 21.4248 23.315C21.8029 22.9369 22.0153 22.4241 22.0153 21.8894C22.0153 21.3548 21.8029 20.842 21.4248 20.4639C21.0467 20.0858 20.5339 19.8734 19.9992 19.8734H10.941C10.7893 19.8734 10.6438 19.8131 10.5366 19.7059C10.4293 19.5986 10.369 19.4531 10.369 19.3014C10.369 19.1497 10.4293 19.0042 10.5366 18.8969C10.6438 18.7896 10.7893 18.7294 10.941 18.7294H12.2351C12.4266 18.7294 12.6102 18.6533 12.7456 18.5179C12.881 18.3825 12.9571 18.1989 12.9571 18.0074C12.9571 17.8159 12.881 17.6322 12.7456 17.4968C12.6102 17.3614 12.4266 17.2854 12.2351 17.2854H10.941C10.4064 17.2854 9.89357 17.4978 9.51548 17.8758C9.1374 18.2539 8.925 18.7667 8.925 19.3014C8.925 19.8361 9.1374 20.3489 9.51548 20.7269C9.89357 21.105 10.4064 21.3174 10.941 21.3174H19.9992C20.1509 21.3174 20.2964 21.3777 20.4037 21.485C20.511 21.5922 20.5712 21.7377 20.5712 21.8894C20.5712 22.0412 20.511 22.1866 20.4037 22.2939C20.2964 22.4012 20.1509 22.4615 19.9992 22.4615H15.4701C15.2786 22.4615 15.095 22.5375 14.9596 22.6729C14.8242 22.8083 14.7481 22.992 14.7481 23.1835C14.7481 23.375 14.8242 23.5586 14.9596 23.694C15.095 23.8294 15.2786 23.9055 15.4701 23.9055Z" fill="#101010" stroke="#101010" stroke-width="0.15"/>
</svg>
