<svg width="30" height="34" viewBox="0 0 30 34" fill="none" xmlns="http://www.w3.org/2000/svg">
<path d="M25.1503 6.9835H25.15L4.85 6.9835L4.8497 6.9835C4.19621 6.98546 3.57294 7.28063 3.11514 7.79947C2.65769 8.31791 2.4017 9.01812 2.4 9.7466V9.74683L2.4 24.2535L2.4 24.2537C2.4017 24.9822 2.65769 25.6824 3.11514 26.2009C3.57294 26.7197 4.19621 27.0149 4.8497 27.0168H4.85H25.15H25.1503C25.8038 27.0149 26.4271 26.7197 26.8849 26.2009C27.3423 25.6824 27.5983 24.9822 27.6 24.2537V24.2535V9.74683V9.7466C27.5983 9.01812 27.3423 8.31791 26.8849 7.79947C26.4271 7.28063 25.8038 6.98546 25.1503 6.9835ZM26.15 24.2535C26.15 24.5614 26.042 24.8545 25.8528 25.0689C25.6641 25.2828 25.4109 25.4002 25.15 25.4002H4.85C4.58911 25.4002 4.33595 25.2828 4.14717 25.0689C3.95803 24.8545 3.85 24.5614 3.85 24.2535V9.74683C3.85 9.43895 3.95803 9.14582 4.14717 8.93147C4.33595 8.71751 4.58911 8.60016 4.85 8.60016H25.15C25.4109 8.60016 25.6641 8.71751 25.8528 8.93147C26.042 9.14582 26.15 9.43895 26.15 9.74683V24.2535Z" fill="#101010" stroke="black" stroke-width="0.2"/>
<path d="M18.722 11.4253L18.7211 11.4245C18.5035 11.2123 18.2344 11.0616 17.9407 10.9875C17.6478 10.9136 17.341 10.9185 17.0507 11.0017C16.6581 11.0844 16.2954 11.2721 16.0003 11.5446C15.8122 11.3688 15.5966 11.2252 15.362 11.1197L15.362 11.1197L15.3611 11.1193C15.2324 11.0635 15.0989 11.0199 14.9621 10.9892C14.6726 10.9077 14.367 10.9037 14.0754 10.9776C13.7831 11.0516 13.5151 11.2012 13.2978 11.4117L13.2974 11.4121C13.0645 11.6412 12.9046 11.9351 12.838 12.2561C12.7714 12.5772 12.8011 12.911 12.9233 13.215C13.0455 13.519 13.2547 13.7795 13.5243 13.9631C13.5991 14.0141 13.6776 14.0585 13.7589 14.096H11.625C11.4391 14.096 11.261 14.1705 11.1298 14.3029C10.9986 14.4353 10.925 14.6147 10.925 14.8017C10.925 14.9886 10.9986 15.168 11.1298 15.3004C11.2432 15.4149 11.3917 15.4861 11.55 15.5032V22.3694C11.55 22.5563 11.6236 22.7357 11.7548 22.8681C11.886 23.0005 12.0641 23.075 12.25 23.075H19.75C19.9359 23.075 20.114 23.0005 20.2452 22.8681C20.3764 22.7357 20.45 22.5563 20.45 22.3694V15.5032C20.6083 15.4861 20.7568 15.4149 20.8702 15.3004C21.0014 15.168 21.075 14.9886 21.075 14.8017C21.075 14.6147 21.0014 14.4353 20.8702 14.3029C20.739 14.1705 20.5609 14.096 20.375 14.096H18.2472C18.3256 14.0598 18.4015 14.0172 18.4739 13.9684C18.7437 13.7869 18.954 13.5287 19.0781 13.2266C19.2022 12.9246 19.2346 12.5922 19.1712 12.2715C19.1078 11.9509 18.9515 11.6564 18.722 11.4253L18.722 11.4253ZM16.9465 12.6162L16.947 12.6157C17.0251 12.5369 17.116 12.4722 17.2157 12.4244L17.36 12.3759C17.4234 12.3575 17.4901 12.3533 17.5554 12.3635C17.6192 12.3735 17.6803 12.397 17.7344 12.4326C17.755 12.4525 17.7715 12.4765 17.7828 12.5031C17.7948 12.5314 17.8007 12.562 17.8 12.5928L17.8 12.5928V12.5944C17.8 12.6584 17.7748 12.7196 17.7302 12.7646C17.6856 12.8096 17.6253 12.8347 17.5625 12.8347H16.788C16.8286 12.7538 16.8821 12.68 16.9465 12.6162ZM14.439 12.3541L14.439 12.3545L14.4466 12.3535C14.512 12.3455 14.578 12.3454 14.6434 12.3531C14.6901 12.3639 14.7354 12.3806 14.7782 12.4026L14.7781 12.4027L14.7828 12.4047C14.88 12.4467 14.9694 12.5054 15.0469 12.5781C15.1119 12.6472 15.1666 12.7252 15.2098 12.8095L14.4375 12.8095L14.4373 12.8095C14.3776 12.8097 14.32 12.7872 14.2759 12.7463C14.2328 12.7062 14.2057 12.6513 14.2001 12.5922C14.2022 12.5296 14.2278 12.4702 14.2716 12.426C14.3162 12.381 14.3762 12.3553 14.439 12.3541ZM15.3 15.5073V17.8799H12.95V15.5073H15.3ZM12.95 21.6637V19.2912H15.3V21.6637H12.95ZM16.7 21.6637V19.2912H19.05V21.6637H16.7ZM16.7 17.8799V15.5073H19.05V17.8799H16.7ZM9.125 10.9428H6.625C6.43913 10.9428 6.26101 11.0173 6.12979 11.1497C5.99859 11.2821 5.925 11.4615 5.925 11.6485C5.925 11.8354 5.99859 12.0148 6.12979 12.1472C6.26101 12.2796 6.43913 12.3541 6.625 12.3541H9.125C9.31087 12.3541 9.48899 12.2796 9.62021 12.1472C9.75141 12.0148 9.825 11.8354 9.825 11.6485C9.825 11.4615 9.75141 11.2821 9.62021 11.1497C9.48899 11.0173 9.31087 10.9428 9.125 10.9428ZM9.125 12.8347H6.625C6.43913 12.8347 6.26101 12.9092 6.12979 13.0417C5.99859 13.174 5.925 13.3534 5.925 13.5404C5.925 13.7273 5.99859 13.9067 6.12979 14.0391C6.26101 14.1715 6.43913 14.246 6.625 14.246H9.125C9.31087 14.246 9.48899 14.1715 9.62021 14.0391C9.75141 13.9067 9.825 13.7273 9.825 13.5404C9.825 13.3534 9.75141 13.174 9.62021 13.0417C9.48899 12.9092 9.31087 12.8347 9.125 12.8347Z" fill="#101010" stroke="#101010" stroke-width="0.15"/>
</svg>
