<svg width="20" height="20" viewBox="0 0 20 20" fill="none" xmlns="http://www.w3.org/2000/svg">
<path fill-rule="evenodd" clip-rule="evenodd" d="M15.7292 8.83543H10.1232C10.1232 9.41843 10.1232 10.5844 10.1196 11.1674H13.3682C13.2437 11.7505 12.8023 12.5667 12.1787 12.9777C12.1781 12.9771 12.1775 12.9812 12.1763 12.9806C11.3472 13.528 10.2531 13.6522 9.44064 13.489C8.1672 13.2359 7.15941 12.3125 6.75022 11.1395C6.75261 11.1377 6.75439 11.1214 6.75618 11.1202C6.50006 10.3926 6.50006 9.41843 6.75618 8.83543H6.75558C7.08556 7.76386 8.12372 6.78616 9.39894 6.51856C10.4246 6.3011 11.5819 6.53664 12.433 7.33302C12.5462 7.22225 13.9995 5.80322 14.1085 5.68778C11.2007 3.05435 6.54473 3.98074 4.80255 7.38141H4.80195C4.80195 7.38141 4.80255 7.38141 4.79897 7.38782C3.93711 9.05813 3.97285 11.0264 4.80493 12.6168C4.80255 12.6185 4.80076 12.6197 4.79897 12.6215C5.55303 14.0848 6.92533 15.2071 8.57878 15.6344C10.3353 16.095 12.5706 15.7802 14.068 14.4259C14.0686 14.4264 14.0692 14.427 14.0698 14.4276C15.3385 13.2849 16.1283 11.3383 15.7292 8.83543Z" fill="black"/>
</svg>
