<svg width="20" height="20" viewBox="0 0 20 20" fill="none" xmlns="http://www.w3.org/2000/svg">
<path fill-rule="evenodd" clip-rule="evenodd" d="M16.6667 15.8333H14.1026V11.1639C14.1026 9.88301 13.5597 9.16849 12.5859 9.16849C11.5263 9.16849 10.8975 9.91303 10.8975 11.1639V15.8333H8.33337V7.16036H10.8975V8.13574C10.8975 8.13574 11.702 6.66667 13.5148 6.66667C15.3282 6.66667 16.6667 7.81817 16.6667 10.2012C16.6667 12.5836 16.6667 15.8333 16.6667 15.8333ZM4.58363 5C3.89297 5 3.33337 4.44015 3.33337 3.74975C3.33337 3.05985 3.89297 2.5 4.58363 2.5C5.27378 2.5 5.83337 3.05985 5.83337 3.74975C5.83389 4.44015 5.27378 5 4.58363 5ZM3.33337 15.8333H5.83337V7.5H3.33337V15.8333Z" fill="black"/>
</svg>
