<svg width="32" height="32" viewBox="0 0 32 32" fill="none" xmlns="http://www.w3.org/2000/svg">
<path d="M23.5 13.08V13.5096L23.9247 13.5743C25.5407 13.8204 27.0047 14.6664 28.0249 15.9436C29.045 17.2208 29.5465 18.8355 29.4294 20.466C29.3123 22.0964 28.5851 23.6228 27.3928 24.7411C26.2011 25.859 24.632 26.4869 22.9981 26.5H5C4.33696 26.5 3.70107 26.2366 3.23223 25.7678C2.76339 25.2989 2.5 24.663 2.5 24V10C2.5 9.33696 2.76339 8.70107 3.23223 8.23223C3.70107 7.76339 4.33696 7.5 5 7.5H6H6.5V7V6C6.5 5.86739 6.55268 5.74022 6.64645 5.64645C6.74022 5.55268 6.86739 5.5 7 5.5C7.13261 5.5 7.25978 5.55268 7.35355 5.64645C7.44732 5.74022 7.5 5.86739 7.5 6V7V7.5H8H18H18.5V7V6C18.5 5.86739 18.5527 5.74021 18.6464 5.64645C18.7402 5.55268 18.8674 5.5 19 5.5C19.1326 5.5 19.2598 5.55268 19.3536 5.64645C19.4473 5.74021 19.5 5.86739 19.5 6V7V7.5H20H21C21.663 7.5 22.2989 7.76339 22.7678 8.23223C23.2366 8.70107 23.5 9.33696 23.5 10V13.08ZM6.5 9V8.5H6H5C4.60217 8.5 4.22064 8.65804 3.93934 8.93934C3.65804 9.22064 3.5 9.60218 3.5 10V13V13.5H4H22H22.5V13V10C22.5 9.60218 22.342 9.22064 22.0607 8.93934C21.7794 8.65804 21.3978 8.5 21 8.5H20H19.5V9V10C19.5 10.1326 19.4473 10.2598 19.3536 10.3536C19.2598 10.4473 19.1326 10.5 19 10.5C18.8674 10.5 18.7402 10.4473 18.6464 10.3536C18.5527 10.2598 18.5 10.1326 18.5 10V9V8.5H18H8H7.5V9V10C7.5 10.1326 7.44732 10.2598 7.35355 10.3536C7.25978 10.4473 7.13261 10.5 7 10.5C6.86739 10.5 6.74022 10.4473 6.64645 10.3536C6.55268 10.2598 6.5 10.1326 6.5 10V9ZM4 14.5H3.5V15V24C3.5 24.3978 3.65804 24.7794 3.93934 25.0607C4.22065 25.342 4.60218 25.5 5 25.5H18.11H19.3347L18.4599 24.6429C17.8422 24.0377 17.3515 23.3153 17.0165 22.518C16.6815 21.7208 16.509 20.8648 16.509 20C16.509 19.1352 16.6815 18.2792 17.0165 17.4819C17.3515 16.6847 17.8422 15.9623 18.4599 15.3571L19.3347 14.5H18.11H4ZM23.0001 25.5H23.0003C24.0404 25.4994 25.0589 25.2038 25.9378 24.6477C26.8167 24.0916 27.5199 23.2976 27.9658 22.358C28.4117 21.4184 28.5821 20.3716 28.4571 19.3391C28.3321 18.3066 27.9169 17.3306 27.2597 16.5245C26.6025 15.7184 25.7302 15.1152 24.744 14.7848C23.7578 14.4545 22.6981 14.4105 21.6879 14.658C20.6778 14.9056 19.7585 15.4345 19.0367 16.1833C18.315 16.9322 17.8204 17.8704 17.6103 18.889L17.4864 19.49H18.1H22.58H23.7871L22.9336 18.6364L22.6596 18.3624C22.5843 18.2687 22.5453 18.1507 22.5499 18.0302C22.5548 17.9044 22.6069 17.785 22.696 17.696C22.785 17.6069 22.9044 17.5548 23.0302 17.5499C23.1507 17.5453 23.2687 17.5843 23.3624 17.6596L25.3454 19.6425C25.3455 19.6426 25.3457 19.6428 25.3458 19.6429C25.4387 19.7365 25.4908 19.8631 25.4908 19.995C25.4908 20.1269 25.4387 20.2535 25.3458 20.3471C25.3457 20.3472 25.3455 20.3474 25.3454 20.3475L23.3464 22.3464L23.3328 22.3601L23.3202 22.3748C23.2754 22.4271 23.2202 22.4696 23.1582 22.4996C23.0962 22.5296 23.0286 22.5465 22.9598 22.5492C22.8909 22.5518 22.8222 22.5402 22.7581 22.5151C22.6939 22.49 22.6356 22.4518 22.5869 22.4031C22.5382 22.3544 22.5 22.2961 22.4749 22.2319C22.4498 22.1678 22.4382 22.0991 22.4408 22.0302C22.4435 21.9614 22.4604 21.8938 22.4904 21.8318C22.5204 21.7698 22.5629 21.7146 22.6152 21.6698L22.6299 21.6572L22.6436 21.6436L22.9336 21.3536L23.7871 20.5H22.58H18.1H17.4876L17.6101 21.1C17.8637 22.3423 18.5387 23.4588 19.5209 24.2606C20.5031 25.0624 21.7322 25.5003 23.0001 25.5Z" fill="#101010" stroke="#101010"/>
</svg>
