<svg width="28" height="22" viewBox="0 0 28 22" fill="none" xmlns="http://www.w3.org/2000/svg">
<path d="M22 8.08V5C22 4.20435 21.6839 3.44129 21.1213 2.87868C20.5587 2.31607 19.7956 2 19 2H18V1C18 0.734784 17.8946 0.48043 17.7071 0.292893C17.5196 0.105357 17.2652 0 17 0C16.7348 0 16.4804 0.105357 16.2929 0.292893C16.1054 0.48043 16 0.734784 16 1V2H6V1C6 0.734784 5.89464 0.48043 5.70711 0.292893C5.51957 0.105357 5.26522 0 5 0C4.73478 0 4.48043 0.105357 4.29289 0.292893C4.10536 0.48043 4 0.734784 4 1V2H3C2.20435 2 1.44129 2.31607 0.87868 2.87868C0.316071 3.44129 0 4.20435 0 5V19C0 19.7956 0.316071 20.5587 0.87868 21.1213C1.44129 21.6839 2.20435 22 3 22H21C22.7603 21.9864 24.4509 21.3101 25.7349 20.1058C27.0189 18.9015 27.802 17.2576 27.9281 15.5018C28.0542 13.7459 27.5142 12.007 26.4155 10.6315C25.3169 9.25607 23.7403 8.34504 22 8.08ZM3 4H4V5C4 5.26522 4.10536 5.51957 4.29289 5.70711C4.48043 5.89464 4.73478 6 5 6C5.26522 6 5.51957 5.89464 5.70711 5.70711C5.89464 5.51957 6 5.26522 6 5V4H16V5C16 5.26522 16.1054 5.51957 16.2929 5.70711C16.4804 5.89464 16.7348 6 17 6C17.2652 6 17.5196 5.89464 17.7071 5.70711C17.8946 5.51957 18 5.26522 18 5V4H19C19.2652 4 19.5196 4.10536 19.7071 4.29289C19.8946 4.48043 20 4.73478 20 5V8H2V5C2 4.73478 2.10536 4.48043 2.29289 4.29289C2.48043 4.10536 2.73478 4 3 4ZM3 20C2.73478 20 2.48043 19.8946 2.29289 19.7071C2.10536 19.5196 2 19.2652 2 19V10H16.11C15.4448 10.6518 14.9163 11.4297 14.5556 12.2883C14.1948 13.1468 14.009 14.0687 14.009 15C14.009 15.9313 14.1948 16.8532 14.5556 17.7117C14.9163 18.5703 15.4448 19.3482 16.11 20H3ZM21 20C20.1878 20.005 19.3866 19.8121 18.6657 19.4379C17.9449 19.0637 17.326 18.5195 16.8626 17.8525C16.3993 17.1854 16.1054 16.4155 16.0065 15.6093C15.9075 14.8032 16.0064 13.985 16.2946 13.2257C16.5829 12.4663 17.0518 11.7887 17.6607 11.2512C18.2697 10.7138 19.0004 10.3328 19.7897 10.1412C20.579 9.94961 21.4031 9.95317 22.1907 10.1516C22.9783 10.35 23.7057 10.7373 24.31 11.28L21 14.59L20.21 13.8C20.0187 13.6362 19.7726 13.5506 19.5209 13.5603C19.2693 13.57 19.0305 13.6743 18.8524 13.8524C18.6743 14.0305 18.57 14.2693 18.5603 14.5209C18.5506 14.7726 18.6362 15.0187 18.8 15.21L20.3 16.71C20.4874 16.8962 20.7408 17.0008 21.005 17.0008C21.2692 17.0008 21.5226 16.8962 21.71 16.71L25.52 12.9C25.8307 13.5568 25.9945 14.2734 26 15C26 16.3261 25.4732 17.5979 24.5355 18.5355C23.5979 19.4732 22.3261 20 21 20Z" fill="#101010"/>
</svg>
