<svg width="35" height="35" viewBox="0 0 35 35" fill="none" xmlns="http://www.w3.org/2000/svg">
<path d="M9.5498 25.0117C9.94824 25.0117 10.2666 25.1455 10.5049 25.4131C10.7451 25.6787 10.8652 26.0293 10.8652 26.4648V26.5146C10.8652 26.8135 10.8076 27.0811 10.6924 27.3174C10.5771 27.5518 10.4111 27.7344 10.1943 27.8652C9.97949 27.9941 9.73145 28.0586 9.4502 28.0586C9.02441 28.0586 8.68164 27.917 8.42188 27.6338C8.16211 27.3486 8.03223 26.9668 8.03223 26.4883V26.2246C8.03223 25.5586 8.15527 25.0293 8.40137 24.6367C8.64941 24.2441 9.01465 24.0049 9.49707 23.9189C9.77051 23.8701 9.95508 23.8105 10.0508 23.7402C10.1465 23.6699 10.1943 23.5732 10.1943 23.4502H10.6396C10.6396 23.6943 10.584 23.8848 10.4727 24.0215C10.3633 24.1582 10.1875 24.2549 9.94531 24.3115L9.54102 24.4023C9.21875 24.4785 8.97656 24.6074 8.81445 24.7891C8.6543 24.9688 8.5498 25.209 8.50098 25.5098C8.78809 25.1777 9.1377 25.0117 9.5498 25.0117ZM9.44434 25.457C9.17871 25.457 8.96777 25.5469 8.81152 25.7266C8.65527 25.9043 8.57715 26.1514 8.57715 26.4678V26.5146C8.57715 26.8545 8.65527 27.124 8.81152 27.3232C8.96973 27.5205 9.18262 27.6191 9.4502 27.6191C9.71973 27.6191 9.93262 27.5195 10.0889 27.3203C10.2451 27.1211 10.3232 26.8301 10.3232 26.4473C10.3232 26.1484 10.2441 25.9092 10.0859 25.7295C9.92969 25.5479 9.71582 25.457 9.44434 25.457ZM11.3311 26.3857C11.3311 26.0752 11.3916 25.7959 11.5127 25.5479C11.6357 25.2998 11.8057 25.1084 12.0225 24.9736C12.2412 24.8389 12.4902 24.7715 12.7695 24.7715C13.2012 24.7715 13.5498 24.9209 13.8154 25.2197C14.083 25.5186 14.2168 25.916 14.2168 26.4121V26.4502C14.2168 26.7588 14.1572 27.0361 14.0381 27.2822C13.9209 27.5264 13.752 27.7168 13.5312 27.8535C13.3125 27.9902 13.0605 28.0586 12.7754 28.0586C12.3457 28.0586 11.9971 27.9092 11.7295 27.6104C11.4639 27.3115 11.3311 26.916 11.3311 26.4238V26.3857ZM11.876 26.4502C11.876 26.8018 11.957 27.084 12.1191 27.2969C12.2832 27.5098 12.502 27.6162 12.7754 27.6162C13.0508 27.6162 13.2695 27.5088 13.4316 27.2939C13.5938 27.0771 13.6748 26.7744 13.6748 26.3857C13.6748 26.0381 13.5918 25.7568 13.4258 25.542C13.2617 25.3252 13.043 25.2168 12.7695 25.2168C12.502 25.2168 12.2861 25.3232 12.1221 25.5361C11.958 25.749 11.876 26.0537 11.876 26.4502ZM17.4863 28H16.9443V26.6465H15.4883V28H14.9434V24.8301H15.4883V26.2041H16.9443V24.8301H17.4863V28ZM19.3965 27.2061L20.1348 24.8301H20.7148L19.4404 28.4893C19.2432 29.0166 18.9297 29.2803 18.5 29.2803L18.3975 29.2715L18.1953 29.2334V28.7939L18.3418 28.8057C18.5254 28.8057 18.668 28.7686 18.7695 28.6943C18.873 28.6201 18.958 28.4844 19.0244 28.2871L19.1445 27.9648L18.0137 24.8301H18.6055L19.3965 27.2061ZM22.4316 27.6162C22.625 27.6162 22.7939 27.5576 22.9385 27.4404C23.083 27.3232 23.1631 27.1768 23.1787 27.001H23.6914C23.6816 27.1826 23.6191 27.3555 23.5039 27.5195C23.3887 27.6836 23.2344 27.8145 23.041 27.9121C22.8496 28.0098 22.6465 28.0586 22.4316 28.0586C22 28.0586 21.6562 27.915 21.4004 27.6279C21.1465 27.3389 21.0195 26.9443 21.0195 26.4443V26.3535C21.0195 26.0449 21.0762 25.7705 21.1895 25.5303C21.3027 25.29 21.4648 25.1035 21.6758 24.9707C21.8887 24.8379 22.1396 24.7715 22.4287 24.7715C22.7842 24.7715 23.0791 24.8779 23.3135 25.0908C23.5498 25.3037 23.6758 25.5801 23.6914 25.9199H23.1787C23.1631 25.7148 23.085 25.5469 22.9443 25.416C22.8057 25.2832 22.6338 25.2168 22.4287 25.2168C22.1533 25.2168 21.9395 25.3164 21.7871 25.5156C21.6367 25.7129 21.5615 25.999 21.5615 26.374V26.4766C21.5615 26.8418 21.6367 27.123 21.7871 27.3203C21.9375 27.5176 22.1523 27.6162 22.4316 27.6162ZM24.1572 26.3857C24.1572 26.0752 24.2178 25.7959 24.3389 25.5479C24.4619 25.2998 24.6318 25.1084 24.8486 24.9736C25.0674 24.8389 25.3164 24.7715 25.5957 24.7715C26.0273 24.7715 26.376 24.9209 26.6416 25.2197C26.9092 25.5186 27.043 25.916 27.043 26.4121V26.4502C27.043 26.7588 26.9834 27.0361 26.8643 27.2822C26.7471 27.5264 26.5781 27.7168 26.3574 27.8535C26.1387 27.9902 25.8867 28.0586 25.6016 28.0586C25.1719 28.0586 24.8232 27.9092 24.5557 27.6104C24.29 27.3115 24.1572 26.916 24.1572 26.4238V26.3857ZM24.7021 26.4502C24.7021 26.8018 24.7832 27.084 24.9453 27.2969C25.1094 27.5098 25.3281 27.6162 25.6016 27.6162C25.877 27.6162 26.0957 27.5088 26.2578 27.2939C26.4199 27.0771 26.501 26.7744 26.501 26.3857C26.501 26.0381 26.418 25.7568 26.252 25.542C26.0879 25.3252 25.8691 25.2168 25.5957 25.2168C25.3281 25.2168 25.1123 25.3232 24.9482 25.5361C24.7842 25.749 24.7021 26.0537 24.7021 26.4502ZM27.7725 28V24.8301H29.0088C29.4307 24.8301 29.7539 24.9043 29.9785 25.0527C30.2051 25.1992 30.3184 25.415 30.3184 25.7002C30.3184 25.8467 30.2744 25.9795 30.1865 26.0986C30.0986 26.2158 29.9688 26.3057 29.7969 26.3682C29.9883 26.4131 30.1416 26.501 30.2568 26.6318C30.374 26.7627 30.4326 26.9189 30.4326 27.1006C30.4326 27.3916 30.3252 27.6143 30.1104 27.7686C29.8975 27.9229 29.5957 28 29.2051 28H27.7725ZM28.3145 26.6084V27.5635H29.2109C29.4375 27.5635 29.6064 27.5215 29.7178 27.4375C29.8311 27.3535 29.8877 27.2354 29.8877 27.083C29.8877 26.7666 29.6553 26.6084 29.1904 26.6084H28.3145ZM28.3145 26.1748H29.0146C29.5225 26.1748 29.7764 26.0264 29.7764 25.7295C29.7764 25.4326 29.5361 25.2793 29.0557 25.2695H28.3145V26.1748Z" fill="#999999"/>
<path d="M17.8408 21H9.45605V19.8311L13.8857 14.9092C14.542 14.165 14.9932 13.5615 15.2393 13.0986C15.4912 12.6299 15.6172 12.1465 15.6172 11.6484C15.6172 10.9805 15.415 10.4326 15.0107 10.0049C14.6064 9.57715 14.0674 9.36328 13.3936 9.36328C12.585 9.36328 11.9551 9.59473 11.5039 10.0576C11.0586 10.5146 10.8359 11.1533 10.8359 11.9736H9.20996C9.20996 10.7959 9.58789 9.84375 10.3438 9.11719C11.1055 8.39062 12.1221 8.02734 13.3936 8.02734C14.583 8.02734 15.5234 8.34082 16.2148 8.96777C16.9062 9.58887 17.252 10.418 17.252 11.4551C17.252 12.7148 16.4492 14.2148 14.8438 15.9551L11.416 19.6729H17.8408V21ZM27.3242 11.543C27.3242 12.1816 27.1543 12.75 26.8145 13.248C26.4805 13.7461 26.0264 14.1357 25.4521 14.417C26.1201 14.7041 26.6475 15.123 27.0342 15.6738C27.4268 16.2246 27.623 16.8486 27.623 17.5459C27.623 18.6533 27.248 19.5352 26.498 20.1914C25.7539 20.8477 24.7725 21.1758 23.5537 21.1758C22.3232 21.1758 21.3359 20.8477 20.5918 20.1914C19.8535 19.5293 19.4844 18.6475 19.4844 17.5459C19.4844 16.8545 19.6719 16.2305 20.0469 15.6738C20.4277 15.1172 20.9521 14.6953 21.6201 14.4082C21.0518 14.127 20.6035 13.7373 20.2754 13.2393C19.9473 12.7412 19.7832 12.1758 19.7832 11.543C19.7832 10.4648 20.1289 9.60938 20.8203 8.97656C21.5117 8.34375 22.4229 8.02734 23.5537 8.02734C24.6787 8.02734 25.5869 8.34375 26.2783 8.97656C26.9756 9.60938 27.3242 10.4648 27.3242 11.543ZM25.9971 17.5107C25.9971 16.7959 25.7686 16.2129 25.3115 15.7617C24.8604 15.3105 24.2686 15.085 23.5361 15.085C22.8037 15.085 22.2148 15.3076 21.7695 15.7529C21.3301 16.1982 21.1104 16.7842 21.1104 17.5107C21.1104 18.2373 21.3242 18.8086 21.752 19.2246C22.1855 19.6406 22.7861 19.8486 23.5537 19.8486C24.3154 19.8486 24.9131 19.6406 25.3467 19.2246C25.7803 18.8027 25.9971 18.2314 25.9971 17.5107ZM23.5537 9.36328C22.915 9.36328 22.3965 9.5625 21.998 9.96094C21.6055 10.3535 21.4092 10.8896 21.4092 11.5693C21.4092 12.2197 21.6025 12.7471 21.9893 13.1514C22.3818 13.5498 22.9033 13.749 23.5537 13.749C24.2041 13.749 24.7227 13.5498 25.1094 13.1514C25.502 12.7471 25.6982 12.2197 25.6982 11.5693C25.6982 10.9189 25.4961 10.3887 25.0918 9.97852C24.6875 9.56836 24.1748 9.36328 23.5537 9.36328Z" fill="#999999"/>
</svg>
