<svg width="24" height="24" viewBox="0 0 24 24" fill="none" xmlns="http://www.w3.org/2000/svg">
<path d="M3.3954 22.4123H21.6046C22.4018 22.4123 23.05 21.7618 23.05 20.9626V3.76203C23.05 2.9626 22.4018 2.3123 21.6046 2.3123H3.3954C2.59818 2.3123 1.95 2.96286 1.95 3.76203V20.9626C1.95 21.762 2.59819 22.4123 3.3954 22.4123ZM2.67073 3.76203C2.67073 3.36093 2.9961 3.03485 3.3954 3.03485H21.6046C22.0039 3.03485 22.3293 3.36094 22.3293 3.76203V20.9626C22.3293 21.3637 22.0039 21.6898 21.6046 21.6898H3.3954C2.9961 21.6898 2.67073 21.3637 2.67073 20.9626V3.76203Z" fill="#999999" stroke="#999999" stroke-width="0.1"/>
<path d="M6.77589 5.95697C6.12828 5.95697 5.60187 5.4303 5.60187 4.78296C5.60187 4.13536 6.12853 3.60869 6.77589 3.60869C7.42348 3.60869 7.95014 4.13535 7.95015 4.78294L6.77589 5.95697ZM6.77589 5.95697C7.42345 5.95697 7.9504 5.43034 7.95015 4.78296L6.77589 5.95697ZM7.22942 4.78266V4.78271C7.22942 5.03243 7.02611 5.23599 6.77589 5.23599C6.52614 5.23599 6.3226 5.03267 6.3226 4.78271C6.3226 4.5327 6.52594 4.32917 6.77589 4.32917C7.02614 4.32917 7.22965 4.53275 7.22942 4.78266ZM2.31036 7.20464H22.6896C22.8888 7.20464 23.05 7.04318 23.05 6.84427C23.05 6.64534 22.8886 6.48391 22.6896 6.48391H2.31036C2.11143 6.48391 1.95 6.64534 1.95 6.84427C1.95 7.04321 2.11143 7.20464 2.31036 7.20464ZM17.0491 4.78296C17.0491 5.4303 17.5755 5.95697 18.2231 5.95697C18.8707 5.95697 19.3971 5.4303 19.3971 4.78296C19.3971 4.13536 18.8705 3.60869 18.2231 3.60869C17.5758 3.60869 17.0491 4.13536 17.0491 4.78296ZM17.7698 4.78271C17.7698 4.5327 17.9732 4.32917 18.2231 4.32917C18.4731 4.32917 18.6764 4.5327 18.6764 4.78271C18.6764 5.03243 18.4728 5.23599 18.2231 5.23599C17.9734 5.23599 17.7698 5.03267 17.7698 4.78271ZM11.3262 4.78296C11.3262 5.4303 11.8526 5.95697 12.5002 5.95697C13.1476 5.95697 13.674 5.43029 13.674 4.78296C13.674 4.13538 13.1476 3.60869 12.5002 3.60869C11.8529 3.60869 11.3262 4.13536 11.3262 4.78296ZM12.047 4.78271C12.047 4.5327 12.2503 4.32917 12.5002 4.32917C12.7499 4.32917 12.9533 4.53268 12.9533 4.78271C12.9533 5.03247 12.7499 5.23599 12.5002 5.23599C12.2505 5.23599 12.047 5.03267 12.047 4.78271Z" fill="#999999" stroke="#999999" stroke-width="0.1"/>
<path d="M9.5332 18H8.44336V10.7754L6.25781 11.5781V10.5938L9.36328 9.42773H9.5332V18ZM18.2988 18H12.709V17.2207L15.6621 13.9395C16.0996 13.4434 16.4004 13.041 16.5645 12.7324C16.7324 12.4199 16.8164 12.0977 16.8164 11.7656C16.8164 11.3203 16.6816 10.9551 16.4121 10.6699C16.1426 10.3848 15.7832 10.2422 15.334 10.2422C14.7949 10.2422 14.375 10.3965 14.0742 10.7051C13.7773 11.0098 13.6289 11.4355 13.6289 11.9824H12.5449C12.5449 11.1973 12.7969 10.5625 13.3008 10.0781C13.8086 9.59375 14.4863 9.35156 15.334 9.35156C16.127 9.35156 16.7539 9.56055 17.2148 9.97852C17.6758 10.3926 17.9062 10.9453 17.9062 11.6367C17.9062 12.4766 17.3711 13.4766 16.3008 14.6367L14.0156 17.1152H18.2988V18Z" fill="#999999"/>
</svg>
