<svg width="32" height="32" viewBox="0 0 32 32" fill="none" xmlns="http://www.w3.org/2000/svg">
<path d="M4.84695 7.94687L4.8469 7.94682L4.8447 7.94922C3.73034 9.16489 3.21942 10.7913 3.72786 12.4206C4.33111 14.7318 5.53722 16.9432 7.24695 18.6529L11.347 22.7529C13.0566 24.4625 15.1686 25.6694 17.5818 26.2727C17.9908 26.3749 18.2987 26.3749 18.6972 26.3749H18.7C19.8172 26.3749 21.0372 25.9688 21.953 25.0529L21.9544 25.0515L23.7544 23.1515L23.7552 23.1522L23.7624 23.1415C23.9649 22.8378 24.175 22.4224 24.175 21.9999C24.175 21.5883 24.072 21.1659 23.753 20.8469L21.553 18.6469C21.0288 18.1227 20.1894 18.0168 19.5584 18.4375L19.5577 18.4379L17.3584 19.9375C17.3583 19.9376 17.3581 19.9377 17.358 19.9377C16.7891 20.3168 16.0287 20.2226 15.553 19.7469L10.053 14.2469C9.57728 13.7711 9.48311 13.0108 9.86218 12.4418C9.86225 12.4417 9.86232 12.4416 9.86239 12.4415L11.362 10.2422L11.362 10.2422L11.3624 10.2415C11.7831 9.61048 11.6772 8.77105 11.153 8.24687L8.95302 6.04687C8.32373 5.41758 7.37624 5.41758 6.74695 6.04687L4.84695 7.94687ZM4.77312 11.9833L4.77314 11.9833L4.77275 11.9817C4.47886 10.8062 4.77242 9.63353 5.65302 8.75294L7.55302 6.85294C7.58639 6.81956 7.64252 6.79801 7.71231 6.78638C7.78039 6.77504 7.84955 6.7749 7.89998 6.7749C7.99887 6.7749 8.07027 6.77625 8.14695 6.85294L8.14694 6.85295L8.14814 6.8541L10.4481 9.0541L10.4563 9.06192L10.4664 9.06698C10.5363 9.10189 10.5772 9.17393 10.5879 9.27068C10.5986 9.36615 10.5776 9.47465 10.5351 9.56199L9.03854 11.7569C9.03846 11.757 9.03837 11.7571 9.03829 11.7573C8.31626 12.7891 8.52322 14.2289 9.34667 15.0527C9.34676 15.0527 9.34686 15.0528 9.34695 15.0529L14.7465 20.5524L14.7463 20.5526L14.7502 20.556C15.6709 21.3744 17.0092 21.585 18.043 20.8613L18.043 20.8614L18.0441 20.8606L20.239 19.2643C20.3282 19.2205 20.4114 19.2019 20.4907 19.2118C20.5708 19.2218 20.6561 19.2621 20.747 19.3529L22.9272 21.5331C22.9303 21.5589 22.9365 21.5854 22.9433 21.6103C22.9533 21.647 22.9665 21.6866 22.9788 21.7236C22.9915 21.7616 23.0033 21.797 23.012 21.829C23.021 21.862 23.025 21.8853 23.025 21.8999C23.025 22.106 23.0215 22.1723 22.947 22.2469L21.047 24.1469C20.2654 24.9284 18.9929 25.3203 17.8194 25.0274C15.7308 24.4305 13.7428 23.3366 12.153 21.7469L8.05302 17.6469L8.05305 17.6468L8.05128 17.6452C6.46155 16.1548 5.26961 14.1679 4.77312 11.9833Z" fill="#458F94" stroke="#458F94" stroke-width="0.15"/>
<path d="M5.64702 8.65303L5.64701 8.65304L5.64777 8.65377L9.24743 12.1534C9.31403 12.2198 9.40768 12.2481 9.48772 12.2615C9.56886 12.275 9.64893 12.275 9.69862 12.275H9.70005H9.7033C9.80391 12.275 9.93108 12.275 10.0531 12.153C10.2824 11.9237 10.2824 11.5763 10.0531 11.347L10.0531 11.347L10.0523 11.3462L6.4527 7.84658C6.2234 7.61768 5.87618 7.61781 5.64702 7.84697C5.41773 8.07626 5.41773 8.42374 5.64702 8.65303ZM22 24.275H22.0311L22.0531 24.253C22.2824 24.0237 22.2824 23.6763 22.0531 23.447L18.5531 19.947C18.3238 19.7177 17.9763 19.7177 17.747 19.947C17.5177 20.1763 17.5177 20.5237 17.747 20.753L21.247 24.253C21.3136 24.3197 21.4075 24.3481 21.4877 24.3615C21.5689 24.375 21.6489 24.375 21.6986 24.375H21.7001C21.7681 24.375 21.8322 24.3429 21.8775 24.3201C21.8796 24.3191 21.8816 24.3181 21.8836 24.3171C21.9379 24.2899 21.9712 24.275 22 24.275ZM22.647 18.447L22.594 18.5L22.647 18.553L24.047 19.953L24.1 20.0061L24.1531 19.953C24.5824 19.5237 24.5824 18.8763 24.1531 18.447C23.7238 18.0177 23.0763 18.0177 22.647 18.447ZM27.6763 20.9712L27.6879 20.975H27.7001H27.8C27.9247 20.975 28.0415 20.9133 28.1364 20.8319C28.2321 20.7499 28.3131 20.6417 28.3671 20.5335L28.3682 20.5341L28.372 20.5212C28.8801 18.7935 28.3714 16.966 27.0541 15.648C25.8342 14.3273 23.905 13.8204 22.1789 14.328L22.1789 14.328L22.1763 14.3288C22.0185 14.3814 21.8777 14.4632 21.7901 14.58C21.6995 14.7008 21.6715 14.8517 21.7289 15.0237C21.7815 15.1815 21.8632 15.3224 21.98 15.41C22.1004 15.5003 22.2508 15.5283 22.4222 15.4717C23.7955 15.0799 25.2666 15.4726 26.247 16.453C27.2278 17.4338 27.6204 18.9056 27.2279 20.2794L27.225 20.2895V20.3C27.225 20.4574 27.2511 20.5982 27.3239 20.7147C27.3977 20.8328 27.5138 20.917 27.6763 20.9712Z" fill="#458F94" stroke="#458F94" stroke-width="0.15"/>
<path d="M25.7763 20.3713L25.7879 20.3751H25.8H25.9C26.1269 20.3751 26.3449 20.2614 26.5531 20.0532L26.5664 20.0398L26.5719 20.0217C26.8805 18.9929 26.5708 17.8648 25.7531 17.0471C24.9354 16.2294 23.8073 15.9197 22.7785 16.2283L22.7785 16.2283L22.7763 16.229C22.6185 16.2816 22.4777 16.3633 22.39 16.4801C22.2995 16.6009 22.2715 16.7518 22.3289 16.9239C22.3815 17.0817 22.4632 17.2225 22.58 17.3101C22.7004 17.4004 22.8508 17.4285 23.0221 17.3718C23.6944 17.1803 24.3658 17.372 24.847 17.8532C25.3285 18.3347 25.5201 19.0068 25.3279 19.6795L25.325 19.6896V19.7002C25.325 19.8576 25.3511 19.9984 25.4239 20.1149C25.4977 20.2329 25.6138 20.3171 25.7763 20.3713Z" fill="#458F94" stroke="#458F94" stroke-width="0.15"/>
</svg>
