<svg width="32" height="32" viewBox="0 0 32 32" fill="none" xmlns="http://www.w3.org/2000/svg">
<path fill-rule="evenodd" clip-rule="evenodd" d="M13 5C11.8954 5 11 5.89543 11 7V16H9C7.89543 16 7 16.8954 7 18V24H6C5.44772 24 5 24.4477 5 25C5 25.5523 5.44772 26 6 26H9H11H13H23H26C26.5523 26 27 25.5523 27 25C27 24.4477 26.5523 24 26 24H25V7C25 5.89543 24.1046 5 23 5H13ZM23 24V7H13V18V24H23ZM11 18H9V21V24H11V21.8662C10.8529 21.9513 10.6821 22 10.5 22H10C9.44772 22 9 21.5523 9 21C9 20.4477 9.44772 20 10 20H10.5C10.6821 20 10.8529 20.0487 11 20.1338V18ZM17 9H15V11H17V9ZM19 9H21V11H19V9ZM17 12.5H15V14.5H17V12.5ZM19 12.5H21V14.5H19V12.5ZM21 16H19V18H21V16ZM19 19.5H21V21.5H19V19.5Z" fill="#101010"/>
</svg>
