<svg width="24" height="24" viewBox="0 0 24 24" fill="none" xmlns="http://www.w3.org/2000/svg">
<path d="M12.1056 2.39697C9.08499 2.39697 6.62325 4.85866 6.62326 7.87929C6.62237 7.94466 6.63201 8.00973 6.65181 8.07203C6.70368 9.99487 7.53675 11.6778 8.51732 13.2379C9.52974 14.8486 10.7031 16.3602 11.456 17.9017C11.5055 18.0034 11.5823 18.0894 11.6779 18.1499C11.7735 18.2105 11.8841 18.2432 11.9972 18.2444C12.1103 18.2457 12.2216 18.2154 12.3185 18.1569C12.4154 18.0985 12.4941 18.0142 12.5458 17.9136C13.3363 16.3733 14.5699 14.8606 15.6343 13.2498C16.6988 11.6391 17.6069 9.89948 17.6069 7.88881C17.6079 7.81158 17.5942 7.73487 17.5665 7.66276C17.4499 4.744 15.0521 2.39697 12.1056 2.39697ZM12.1056 3.61527C14.4677 3.61527 16.3696 5.51714 16.3696 7.87929C16.3688 7.92322 16.3728 7.9671 16.3815 8.01017C16.3452 9.60345 15.6096 11.0787 14.6183 12.5788C13.7803 13.8469 12.8329 15.1562 12.0152 16.5168C11.239 15.1621 10.3447 13.855 9.55001 12.5907C8.58285 11.052 7.86058 9.53814 7.86058 7.88881C7.86057 7.85291 7.85739 7.81708 7.85107 7.78173C7.90386 5.46615 9.77684 3.61527 12.1056 3.61527ZM12.1056 6.05423C11.1035 6.05423 10.2781 6.87963 10.2781 7.88167C10.2781 8.88372 11.1035 9.70911 12.1056 9.70911C13.1076 9.70911 13.933 8.88372 13.933 7.88167C13.933 6.87963 13.1076 6.05423 12.1056 6.05423ZM12.1056 7.27253C12.4492 7.27253 12.7147 7.53811 12.7147 7.88167C12.7147 8.22535 12.4492 8.49082 12.1056 8.49082C11.7619 8.49082 11.4964 8.22535 11.4964 7.88167C11.4964 7.53811 11.7619 7.27253 12.1056 7.27253ZM17.0882 13.64C16.9459 13.6399 16.808 13.6897 16.6986 13.7806C16.5891 13.8716 16.515 13.998 16.4889 14.1379C16.4629 14.2778 16.4867 14.4224 16.5562 14.5466C16.6257 14.6708 16.7365 14.7668 16.8693 14.8179C18.0835 15.3097 18.8641 15.9546 19.2012 16.5477C19.5383 17.1409 19.5304 17.6536 19.0893 18.2848C18.2072 19.547 15.3911 20.6649 12.177 20.6785C8.96278 20.6919 6.10752 19.6028 5.17415 18.3371C4.70746 17.7042 4.68432 17.188 4.99807 16.5977C5.31182 16.0076 6.0636 15.3571 7.25858 14.8559C7.33454 14.8266 7.40385 14.7822 7.46239 14.7256C7.52094 14.669 7.56753 14.6012 7.59942 14.5263C7.63131 14.4513 7.64785 14.3707 7.64806 14.2893C7.64827 14.2078 7.63214 14.1272 7.60063 14.0521C7.56913 13.977 7.52288 13.9089 7.46462 13.852C7.40637 13.7951 7.33729 13.7504 7.26148 13.7206C7.18566 13.6909 7.10465 13.6766 7.02323 13.6787C6.9418 13.6808 6.86163 13.6992 6.78744 13.7328C5.42217 14.3054 4.42813 15.0755 3.92255 16.0266C3.41696 16.9776 3.50446 18.1257 4.19381 19.0605C5.57249 20.9302 8.71498 21.9117 12.1841 21.8968C15.6532 21.8822 18.7662 20.8767 20.0887 18.9843C20.75 18.0381 20.7948 16.8866 20.26 15.9457C19.7253 15.0048 18.7085 14.2475 17.3262 13.6876C17.2508 13.6559 17.1699 13.6398 17.0882 13.64Z" fill="#999999"/>
</svg>
