<svg width="32" height="32" viewBox="0 0 32 32" fill="none" xmlns="http://www.w3.org/2000/svg">
<path fill-rule="evenodd" clip-rule="evenodd" d="M6 15.5C6 10.2533 10.2533 6 15.5 6C20.7467 6 25 10.2533 25 15.5C25 17.7631 24.2086 19.8414 22.8875 21.4733L26.5607 25.1464C26.9512 25.537 26.9512 26.1701 26.5607 26.5607C26.1701 26.9512 25.537 26.9512 25.1464 26.5607L21.4733 22.8875C19.8414 24.2086 17.7631 25 15.5 25C10.2533 25 6 20.7467 6 15.5ZM15.5 8C11.3579 8 8 11.3579 8 15.5C8 19.6421 11.3579 23 15.5 23C19.6421 23 23 19.6421 23 15.5C23 11.3579 19.6421 8 15.5 8ZM11.9645 11.4644C12.8682 10.5607 14.1196 10 15.5 10C16.8804 10 18.1318 10.5607 19.0355 11.4644C19.426 11.855 19.426 12.4881 19.0355 12.8787C18.645 13.2692 18.0118 13.2692 17.6213 12.8787C17.0773 12.3347 16.3287 12 15.5 12C14.6713 12 13.9227 12.3347 13.3786 12.8787C12.9881 13.2692 12.3549 13.2692 11.9644 12.8786C11.5739 12.4881 11.5739 11.8549 11.9645 11.4644Z" fill="#101010"/>
</svg>
