<svg width="24" height="24" viewBox="0 0 24 24" fill="none" xmlns="http://www.w3.org/2000/svg">
<path d="M12 2.24854C6.62328 2.24854 2.24854 6.62328 2.24854 12C2.24854 17.3768 6.62328 21.7515 12 21.7515C17.3768 21.7515 21.7515 17.3768 21.7515 12C21.7515 6.62328 17.3768 2.24854 12 2.24854ZM12 20.2515C7.45053 20.2515 3.74854 16.5495 3.74854 12C3.74854 7.45053 7.45053 3.74854 12 3.74854C16.5495 3.74854 20.2515 7.45053 20.2515 12C20.2515 16.5495 16.5495 20.2515 12 20.2515Z" fill="#999999"/>
<path d="M12.015 5.25146C12.0142 5.25146 12.0142 5.25146 12.0135 5.25146C11.6002 5.25146 11.2642 5.58596 11.2635 5.99996L11.2522 11.25H7.50146C7.08746 11.25 6.75146 11.586 6.75146 12C6.75146 12.414 7.08746 12.75 7.50146 12.75H12C12.4132 12.75 12.7492 12.4155 12.75 12.0015L12.7635 6.00296C12.7642 5.58896 12.429 5.25221 12.015 5.25146Z" fill="#999999"/>
</svg>
